<?xml version="1.0" encoding="utf-8"?>
<!-- Generator: Adobe Illustrator 23.0.3, SVG Export Plug-In . SVG Version: 6.00 Build 0)  -->
<svg version="1.1" id="Capa_1" xmlns="http://www.w3.org/2000/svg" xmlns:xlink="http://www.w3.org/1999/xlink" x="0px" y="0px"
	 viewBox="0 0 300 300" style="enable-background:new 0 0 300 300;" xml:space="preserve">
<style type="text/css">
	.st0{fill:#FFFFFF;}
</style>
<g>
	<path class="st0" d="M89.1,154.7c0.7,4.4,1,7.7,1.7,11c2.3,11.8,5.6,14.7,17.6,14.7c47.1,0,94.2,0,141.3,0c2.8,0,5.7-0.2,8.4,0.3
		c6.6,1.1,10.9,5.1,11,11.9c0.1,7.2-4.3,11.4-11.3,12.6c-2.5,0.4-5.1,0.3-7.6,0.3c-47.1,0-94.2,0-141.3,0c-22.9,0-37.1-11.5-41.5-34
		c-8.8-45.1-17.6-90.2-26-135.3c-1.3-6.8-3.9-9.1-10.5-8.5C25,28.2,19,28,13.1,27.7C5,27.2,0,22.3,0,15.2S5,2.9,13.3,2.9
		c9.8-0.1,19.8-0.2,29.4,1.7c5.6,1.1,11.5,5.2,15.2,9.6c3.8,4.5,7.5,5.6,12.9,5.6c67.4-0.1,134.8-0.1,202.2-0.1
		c22.5,0,31,10.7,25.4,32.2c-6.3,24-12.7,47.9-19.2,71.9c-5.6,20.5-19.4,31-40.8,31c-46.3,0-92.5,0-138.8,0
		C96.5,154.7,93.4,154.7,89.1,154.7z"/>
	<path class="st0" d="M116.9,249.1c-0.8,13.6-12.7,24.8-25.6,24.1c-13.9-0.8-24.4-12.6-23.6-26.7c0.7-13.6,12.8-24.7,25.8-23.6
		C107,223.9,117.7,235.9,116.9,249.1z"/>
	<path class="st0" d="M220,247.9c0-13.7,11.1-25,24.4-25.1c13.1-0.1,24.7,11.5,24.9,24.8c0.2,13.6-11.7,25.7-25.1,25.5
		C230.8,272.9,219.9,261.6,220,247.9z"/>
</g>
</svg>
